<svg width="100" height="28" viewBox="0 0 100 28" fill="none" xmlns="http://www.w3.org/2000/svg">
<path d="M23.5935 3.66845C23.6393 3.45036 23.7105 3.31405 23.968 3.29587C25.071 3.21257 26.1724 3.04143 27.2723 3.05052C28.6312 3.0596 29.5304 3.97894 29.7074 5.37232C30.4074 3.97136 30.9573 2.50679 31.3508 1.00588C31.3318 0.992247 31.3129 0.980131 31.2939 0.968014C30.2083 0.257691 28.9678 0.0668583 27.6942 0.0153637C25.0916 -0.0936837 22.5711 0.390972 20.0807 1.0498C19.948 1.08615 19.7947 1.28001 19.7631 1.42389C19.5434 2.45076 15.6514 20.7283 15.6514 20.7283H18.5637C19.3838 20.7283 20.087 20.1225 20.2529 19.344C20.2545 19.3471 23.4039 4.56658 23.5935 3.66845Z" fill="#1D1D1D"/>
<path d="M33.4601 3.61084C31.1404 8.45588 27.2452 12.7133 22.1885 14.976C30.3787 17.2191 35.7688 9.49335 33.4601 3.61084Z" fill="#1D1D1D"/>
<path d="M14.6363 7.46533C8.6884 1.95692 -1.45183 8.24381 0.174207 15.7348C1.18554 20.395 6.44766 21.4295 10.7063 20.3299C13.4085 19.6332 13.0861 17.1206 13.0861 17.1206C9.69658 17.8718 3.24614 17.1963 3.77552 14.714C6.38287 15.4152 10.3571 15.5818 13.1462 14.2081C16.7854 12.4149 16.1644 9.11013 14.6363 7.46533ZM12.1428 10.605C11.2341 12.4028 6.04154 12.3876 4.17215 11.8621C5.34467 9.31157 8.42767 7.78793 11.2547 8.89204C12.108 9.22675 12.4872 9.91739 12.1428 10.605Z" fill="#1D1D1D"/>
<path d="M51.6874 6.52938C49.1685 5.73727 46.1471 5.37378 43.9348 5.37378C38.0801 5.37378 34.3951 10.4248 34.5673 14.8564C34.6337 16.5572 35.2294 20.4178 40.5911 20.8615C42.0796 20.9842 43.5003 20.801 44.7439 19.9195C44.7534 19.9119 44.8403 19.8377 44.8197 19.9437C44.7755 20.1906 44.6759 20.7328 44.6759 20.7328C44.6759 20.7328 47.4713 20.7328 48.7971 20.7328C49.0468 20.7328 49.0816 20.5677 49.1179 20.3996C50.0708 15.9317 51.03 11.4729 51.9718 7.00192C52.0318 6.72021 51.9734 6.61722 51.6874 6.52938ZM47.1442 9.19195C46.6417 11.4956 46.155 13.8022 45.6478 16.1074C45.6035 16.3058 45.4961 16.486 45.3381 16.6208C44.1339 17.6477 42.7307 17.9854 41.1631 17.6401C38.1576 16.9782 38.6506 12.8935 39.703 10.9231C40.6622 9.12986 42.8303 8.11662 45.0378 8.39076C47.247 8.66338 47.2011 8.92388 47.1442 9.19195Z" fill="#1D1D1D"/>
<path d="M99.9541 10.7641C99.646 7.23819 96.7415 5.37378 93.2556 5.37378C85.9455 5.37378 83.5309 11.2275 83.7537 15.2956C83.967 19.2016 87.5715 21.0206 91.2028 20.6949C94.5766 20.5026 97.1113 19.0259 98.6789 16.1331C99.5859 14.4565 100.174 12.689 99.9541 10.7641ZM89.8723 17.3887C86.655 16.7541 87.7453 12.6754 88.4169 11.4729C90.0382 8.56796 92.2474 8.43468 93.5036 8.62551C95.1629 8.87541 96.1047 10.0113 96.0115 11.9303C95.8708 14.8352 93.6158 18.1263 89.8723 17.3887Z" fill="#1D1D1D"/>
<path d="M51.0713 27.3091L51.6165 24.7465C51.6986 24.4466 51.9941 24.2331 52.3181 24.224C53.952 24.1801 54.5114 23.9075 55.3284 23.0563C55.9526 22.296 56.4251 21.6856 56.9497 20.9829C57.0192 20.8905 57.0255 20.7254 57.0002 20.6042C56.1153 16.2984 53.8825 5.37393 53.8825 5.37393C53.8825 5.37393 57.9531 5.3391 58.2091 6.90514C58.7006 9.90395 59.8636 15.9667 59.9189 16.206C60.0627 15.9682 63.8694 9.70402 65.6503 6.70068C66.5242 5.22702 69.8537 5.37393 70.9535 5.37393C67.6714 10.6309 61.2968 20.8253 60.3029 22.4096C57.7208 26.52 55.4485 27.3409 53.0687 27.3122C52.4208 27.3046 51.0713 27.3091 51.0713 27.3091Z" fill="#1D1D1D"/>
<path d="M81.2312 16.4967C81.0005 17.5765 80.5817 19.5409 80.5675 19.6106C80.5438 19.7257 80.4932 19.8529 80.3336 19.9105C78.1355 20.698 75.7889 21.0691 73.654 20.3436C66.7453 17.9991 68.6005 7.3594 75.8158 5.66613C79.3586 4.83465 82.892 6.03871 83.0642 6.09021C83.2649 6.15079 83.3898 6.34465 83.3487 6.54154C83.2238 7.13373 82.8272 9.00874 82.8098 9.07689C80.8108 8.45744 78.7107 8.00914 76.6691 8.69674C72.6111 10.0659 71.7293 16.739 75.7652 17.5205C77.6994 17.8961 79.4692 17.2388 81.2312 16.4967Z" fill="#1D1D1D"/>
</svg>
